<svg width="50" height="50" viewBox="0 0 50 50" fill="none" xmlns="http://www.w3.org/2000/svg">
<path d="M4.63885 39.2593C4.77214 39.4448 4.80188 39.6861 4.71349 39.8968L1.46585 47.6375C1.09636 48.5182 1.96908 49.4093 2.85728 49.0583L11.0828 45.8071C11.2771 45.7303 11.4962 45.7524 11.6732 45.8634C15.5308 48.2832 20.1008 49.6835 25 49.6835C28.7279 49.6835 32.2652 48.8728 35.443 47.419C21.5517 47.419 14.7395 36.6379 12.5 32.759L11.3147 11.5306C6.25136 14.4539 0 26.9946 2.09416 34.8101C2.78943 36.3854 3.64445 37.8752 4.63885 39.2593Z" fill="url(#paint0_linear_54_41)"/>
<path d="M50 24.8418C50 12.2415 40.5591 1.83223 28.3228 0.217497C35.2848 2.08297 39.7629 10.6726 39.7629 13.3625C37.3733 31.8236 31.2003 35.9911 12.5 32.759C14.7395 36.6379 21.5517 47.419 35.443 47.419C44.0352 43.4884 50 34.8572 50 24.8418Z" fill="url(#paint1_linear_54_41)"/>
<path d="M25 0C11.1929 0 0 11.122 0 24.8418C0 28.387 0.747394 31.7589 2.09416 34.8101C0 26.9946 6.25136 14.4539 11.3147 11.5306L12.5 32.759C31.2003 35.9911 37.3733 31.8236 39.7629 13.3625C39.7629 10.6726 35.2848 2.08297 28.3228 0.217497C27.2357 0.0740424 26.1265 0 25 0Z" fill="url(#paint2_linear_54_41)"/>
<path d="M10.3447 25.7204L10.3447 14.0514C10.3447 12.1179 11.1521 11.2069 12.4208 11.2069C16.3422 11.2069 17.7262 15.036 17.7262 17.5523V25.2103C17.7262 27.0673 18.5039 28.8482 19.8882 30.1613C22.7708 32.8957 27.4445 32.8957 30.3271 30.1613C31.7114 28.8482 32.4891 27.0673 32.4891 25.2103V17.5523C32.4891 15.036 33.8731 11.2069 37.7946 11.2069C39.0632 11.2069 39.8706 12.1179 39.8706 14.0514V25.7204C39.8706 30.6376 36.9418 35.2644 32.3052 37.4634L31.7098 37.7458C27.5537 39.7169 22.6616 39.7169 18.5055 37.7458L17.9102 37.4634C13.2736 35.2644 10.3447 30.6376 10.3447 25.7204Z" fill="white"/>
<circle cx="29.1128" cy="22.9311" r="0.948276" fill="white"/>
<circle cx="25.086" cy="22.9311" r="0.948276" fill="white"/>
<circle cx="20.9912" cy="22.9311" r="0.948276" fill="white"/>
<defs>
<linearGradient id="paint0_linear_54_41" x1="3.87931" y1="18.2112" x2="19.6121" y2="46.6595" gradientUnits="userSpaceOnUse">
<stop stop-color="#5027B1"/>
<stop offset="1" stop-color="#7949EC"/>
</linearGradient>
<linearGradient id="paint1_linear_54_41" x1="41.7026" y1="9.69827" x2="25" y2="46.444" gradientUnits="userSpaceOnUse">
<stop stop-color="#7949EC"/>
<stop offset="1" stop-color="#5027B1"/>
</linearGradient>
<linearGradient id="paint2_linear_54_41" x1="10.4526" y1="11.0991" x2="33.5129" y2="8.83621" gradientUnits="userSpaceOnUse">
<stop stop-color="#AC6AFF"/>
<stop offset="1" stop-color="#4608CB"/>
</linearGradient>
</defs>
</svg>
